<?xml version="1.0" encoding="utf-8"?>
<!-- Generator: Adobe Illustrator 16.0.3, SVG Export Plug-In . SVG Version: 6.00 Build 0)  -->
<!DOCTYPE svg PUBLIC "-//W3C//DTD SVG 1.1//EN" "http://www.w3.org/Graphics/SVG/1.1/DTD/svg11.dtd">
<svg version="1.1" id="Ebene_1" xmlns="http://www.w3.org/2000/svg" xmlns:xlink="http://www.w3.org/1999/xlink" x="0px" y="0px"
	 width="116.794px" height="132.443px" viewBox="0 0 116.794 132.443" enable-background="new 0 0 116.794 132.443"
	 xml:space="preserve">
<ellipse transform="matrix(0.9953 0.0972 -0.0972 0.9953 6.9195 -8.6246)" fill="#301E0D" cx="92.016" cy="66.736" rx="12.88" ry="19.763"/>
<ellipse transform="matrix(0.9941 -0.1086 0.1086 0.9941 -7.0828 3.3938)" fill="#301E0D" cx="27.626" cy="66.743" rx="12.881" ry="19.761"/>
<path fill="#442C17" d="M93.798,49.944c-6.766-0.66-13.08,6.845-14.553,16.991c0.023-0.477,0.045-0.952,0.092-1.436
	c1.061-10.862,7.66-19.107,14.74-18.417c7.08,0.691,11.959,10.057,10.9,20.919c-0.049,0.483-0.119,0.954-0.188,1.426
	C105.306,59.188,100.563,50.604,93.798,49.944z"/>
<path fill="#442C17" d="M25.792,49.957c6.758-0.738,13.157,6.695,14.747,16.823c-0.029-0.477-0.056-0.951-0.108-1.435
	c-1.186-10.849-7.879-19.018-14.95-18.246c-7.071,0.772-11.844,10.193-10.659,21.043c0.053,0.482,0.129,0.952,0.203,1.424
	C14.392,59.333,19.036,50.695,25.792,49.957z"/>
<g>
	<g>
		<linearGradient id="SVGID_1_" gradientUnits="userSpaceOnUse" x1="98.3184" y1="82.6582" x2="97.9019" y2="50.5752">
			<stop  offset="0.2151" style="stop-color:#301E0D"/>
			<stop  offset="1" style="stop-color:#604835"/>
		</linearGradient>
		<path fill="url(#SVGID_1_)" d="M97.087,83.833l2.148-1.937c-6.617-13.233-1.654-22.247,3.162-28.468c0,0-0.418-0.788-0.775-1.284
			s-0.807-1.102-0.807-1.102C95.593,57.788,89.907,69.474,97.087,83.833z"/>
	</g>
	<g>
		<linearGradient id="SVGID_2_" gradientUnits="userSpaceOnUse" x1="21.8267" y1="83.6504" x2="21.4102" y2="51.5683">
			<stop  offset="0.2151" style="stop-color:#301E0D"/>
			<stop  offset="1" style="stop-color:#604835"/>
		</linearGradient>
		<path fill="url(#SVGID_2_)" d="M22.468,83.833l-2.148-1.937c6.617-13.233,1.713-22.146-3.104-28.368l1.582-2.386
			C24.021,57.888,29.647,69.474,22.468,83.833z"/>
	</g>
	<linearGradient id="SVGID_3_" gradientUnits="userSpaceOnUse" x1="17.7378" y1="83.7051" x2="17.3213" y2="51.6213">
		<stop  offset="0.2151" style="stop-color:#301E0D"/>
		<stop  offset="1" style="stop-color:#604835"/>
	</linearGradient>
	<path fill="url(#SVGID_3_)" d="M16.256,74.582l0.308-0.7c3.061-6.12,0.907-9.745-1.352-12.663l-0.331-0.071l0.631-3.204
		l1.084,1.387c2.755,3.558,5.306,9.266,1.815,16.247l-0.918,2.095L16.256,74.582z"/>
	<g>
		<linearGradient id="SVGID_4_" gradientUnits="userSpaceOnUse" x1="102.3594" y1="82.6055" x2="101.9429" y2="50.5225">
			<stop  offset="0.2151" style="stop-color:#301E0D"/>
			<stop  offset="1" style="stop-color:#604835"/>
		</linearGradient>
		<path fill="url(#SVGID_4_)" d="M103.298,74.582l-0.307-0.7c-2.836-5.672-1.195-9.2,0.857-12.009
			c0.163-0.223,0.961-0.979,0.961-0.979s-0.104-0.641-0.271-1.391c-0.166-0.75-0.354-1.651-0.354-1.651l-1.227,1.478
			c-2.754,3.558-5.305,9.266-1.814,16.247l0.918,2.095L103.298,74.582z"/>
	</g>
</g>
<path fill="#1E1107" d="M79.821,62.383c-0.922,10.712,3.92,19.885,10.922,20.567c6.385,0.623,12.361-6.027,14.256-15.302
	c-0.01,0.118-0.012,0.233-0.021,0.353c-1.061,10.861-7.66,19.107-14.74,18.417s-11.961-10.058-10.9-20.92
	C79.44,64.43,79.614,63.396,79.821,62.383z"/>
<path fill="#1E1107" d="M39.912,62.235c1.043,10.7-3.691,19.928-10.687,20.691c-6.376,0.696-12.43-5.885-14.431-15.137
	c0.012,0.117,0.014,0.232,0.027,0.352c1.185,10.85,7.877,19.019,14.949,18.246c7.072-0.771,11.844-10.193,10.66-21.043
	C40.314,64.277,40.13,63.245,39.912,62.235z"/>
<g>
	<path fill="#E2C79B" d="M28.492,82.618c0.931,1.725,1.945,3.436,3.523,4.52c4.859,3.333,3.109-3.344,2.602-5.695
		c-0.826-3.801,1.045-9.893-0.807-13.426c-1.549-2.957-7.188-5.29-9.507-1.063c-2.296,4.166,0.347,9.245,2.593,12.795
		C27.458,80.633,27.962,81.63,28.492,82.618z"/>
	<path fill="none" stroke="#301E0D" stroke-width="2" stroke-miterlimit="10" d="M28.492,82.618c0.931,1.725,1.945,3.436,3.523,4.52
		c4.859,3.333,3.109-3.344,2.602-5.695c-0.826-3.801,0.545-8.643-1.307-12.176c-1.549-2.957-6.743-6.728-9.063-2.5
		c-2.297,4.166,0.402,9.433,2.648,12.982C27.458,80.633,27.962,81.63,28.492,82.618z"/>
	<path fill="#CEA27E" fill-opacity="0.8" d="M29.908,69.155l-0.396,3.299c-0.375-1.688-0.864-2.77-1.609-2.594
		c-0.594,0.141-0.969,0.979-1.071,2.252c-0.012,0.148-0.123,0.191-0.169,0.054c-0.449-1.358-0.52-2.623,0.334-3.399
		c0.688-0.625,1.953-0.359,2.344,0.594L29.908,69.155z"/>
</g>
<g>
	<path fill="#E2C79B" d="M93.177,82.618c-0.934,1.725-1.949,3.436-3.527,4.52c-4.848,3.333-3.104-3.344-2.59-5.695
		c0.814-3.801-0.285-8.16,1.563-11.693c1.549-2.957,6.426-7.022,8.746-2.795c2.291,4.166-0.348,9.245-2.594,12.795
		C94.21,80.633,93.706,81.63,93.177,82.618z"/>
	<path fill="none" stroke="#301E0D" stroke-width="2" stroke-miterlimit="10" d="M93.177,82.618
		c-0.934,1.725-1.949,3.436-3.527,4.52c-4.848,3.333-3.104-3.344-2.59-5.695c0.814-3.801-1.035-8.33,0.813-11.863
		c1.549-2.957,7.176-6.853,9.496-2.625c2.291,4.166-0.348,9.245-2.594,12.795C94.21,80.633,93.706,81.63,93.177,82.618z"/>
	<path fill="#CEA27E" fill-opacity="0.8" d="M91.335,69.905l0.396,3.299c0.375-1.688,0.865-2.77,1.609-2.594
		c0.594,0.141,0.969,0.98,1.072,2.252c0.012,0.148,0.123,0.191,0.168,0.055c0.449-1.358,0.52-2.623-0.334-3.4
		c-0.688-0.625-1.953-0.359-2.344,0.594L91.335,69.905z"/>
</g>
<path fill="#E2C79F" d="M92.099,60.068c0.104-2.307-0.023-4.593-0.758-7.016c-1.619-5.264-4.768-10.269-8.76-14.058
	c-5.9-5.605-13.885-8.698-22-8.683c-8.246,0.015-16.333,3.227-22.24,9.002c-2.901,2.847-5.246,6.264-6.809,10.019
	c-1.514,3.633-3.34,7.836-2.832,11.815c0.35,2.775,0.748,5.583,1.11,8.373c1.124,8.814,2.89,17.403,5.062,26.021
	c3.672,14.584,22.477,23.561,26.667,23.561c4.189,0,21.168-9.704,25.764-24.02c2.949-9.18,3.52-19.853,4.33-29.415
	C91.796,63.734,92.019,61.895,92.099,60.068z"/>
<path fill="none" stroke="#301E0D" stroke-width="2.5" stroke-miterlimit="10" d="M92.005,59.943
	c0.104-2.307-0.023-4.593-0.758-7.016c-1.619-5.264-4.768-10.269-8.76-14.058c-5.9-5.605-13.885-8.698-22-8.683
	c-8.246,0.015-16.333,3.227-22.24,9.002c-2.901,2.847-5.246,6.264-6.809,10.019c-1.514,3.633-3.34,7.836-2.832,11.815
	c0.35,2.775,0.748,5.583,1.11,8.373c1.124,8.814,2.89,17.403,5.062,26.021c3.672,14.584,18.303,23.561,26.667,23.561
	c8.363,0,21.168-9.704,25.764-24.02c2.949-9.18,3.52-19.853,4.33-29.415C91.702,63.609,91.925,61.77,92.005,59.943z"/>
<path fill="#C69771" d="M57.512,86.384c0,0,2.464,2.1,3.868,1.745c1.4-0.358,2.809-1.062,2.809-1.062s-2.1,2.815-3.156,2.818
	C59.979,89.89,57.516,87.786,57.512,86.384z"/>
<g>
	<path fill="#301E0D" d="M53.71,65.557c-0.001,0-1.467-0.986-3.557-2.039c-3.172-1.598-7.74-3.457-10.49-3.121
		c-4.566,0.561-6.26,2.686-6.26,2.686s4.25-1.987,11.291-0.254c7.039,1.729,9.368,3.849,9.368,3.849S54.435,66.256,53.71,65.557z"/>
</g>
<g>
	<path fill="#301E0D" d="M65.81,65.557c0,0,8.168-5.49,14.047-5.16c4.592,0.257,6.26,2.686,6.26,2.686s-4.25-1.987-11.291-0.254
		c-7.041,1.729-9.369,3.849-9.369,3.849S65.085,66.256,65.81,65.557z"/>
</g>
<path id="auge_l" fill="#FFFFFF" d="M52.708,74.375c0,0-5.416,1.044-9.481,0.372c-3.691-0.615-6.007-3.162-6.628-4.215
	c-0.063-0.105-0.375-1.125-0.232-1.481c0.166-0.411,0.588-0.663,0.588-0.663l7.068-1.479C44.023,66.908,52.268,72.019,52.708,74.375
	z"/>
<path id="auge_r" fill="#FFFFFF" d="M66.435,74.372c0,0,5.643,1.089,9.709,0.416c4.063-0.678,6.051-3.738,6.354-4.525
	c0.305-0.787,0.385-1.493,0.385-1.493l-7.945-1.861C74.937,66.908,66.874,72.016,66.435,74.372z"/>
<path d="M49.163,70.493c0,0-0.511,4.479-4.355,4.393c-4.33-0.098-5.26-4.94-4.287-6.556C41.499,66.714,46.98,68.162,49.163,70.493z"
	/>
<path d="M46.333,70.008c0.621,1.964-0.859,3.604-2.789,3.188c-2.18-0.471-2.86-3.967-0.557-4.777"/>
<path fill="#301E0D" d="M53.092,74.538c0,0-0.551-1.734-1.943-3.581c-1.555-2.061-4.138-4.269-7.78-4.518
	c-0.955-0.064-2.434,0.088-3.595,0.296c-0.891,0.159-2.808,0.685-3.533,0.912c-0.508,0.159-0.991,0.281-1.295,0.266
	c-0.102-0.006-0.351,0.06-0.22,0.244c0.269,0.378,0.864,1.033,1.133,1.324c0.085,0.092,0.342,0.146,0.443,0.139
	c1.525-0.109,3.066-1.115,7.911-0.836c2.651,0.151,4.688,1.564,6.125,2.969C51.704,73.086,52.521,74.415,53.092,74.538z"/>
<path d="M70.663,70.374c0,0,0,0.822,0.459,1.833c0.625,1.375,1.998,2.821,4.291,2.667c4.334-0.292,5.084-4.67,3.965-6.544
	C78.409,66.708,72.845,68.043,70.663,70.374z"/>
<circle fill="#FFFFFF" cx="46.162" cy="70.065" r="0.803"/>
<path fill="#C69771" fill-opacity="0.8" d="M30.06,56.872c0,0,17.333-6.584,18.25-23.5c0,0,9.147,29.229,42.312,22.396
	c0,0-0.188-1.229-0.541-2.271c-0.379-1.116-8.854-8.458-8.854-8.458l-34-15.75l-16.542,25.25L30.06,56.872z"/>
<path fill="#301E0D" d="M24.176,52.55C29.266,62.459,48,40.631,49.583,36.343c11.282,15.486,29.221,19.239,39.53,17.364
	c10.797-0.184,3.854-41.162-28.854-40.908c-9.634,0.075-15.835,2.028-20.361,7.96C26.908,22.689,20.572,45.536,24.176,52.55z"/>
<path fill="#1E1107" d="M91.173,48.936c-0.629,0.485-1.373,0.756-2.229,0.771c-10.307,1.875-28.246-1.877-39.529-17.364
	c-1.281,3.473-13.811,18.448-21.232,18.755c-1.744,0.073,0.314,1.731-0.061,4.005c7.391-0.005,20.164-15.252,21.46-18.761
	c11.282,15.486,29.221,19.239,39.53,17.364c1.363-0.418,2.031-0.469,2.756-1.26C92.56,50.58,92.649,47.795,91.173,48.936z"/>
<g>
	<path fill="#1E1107" d="M93.228,46.538c-1.723,0.695-1.197,8.005-1.951,6.023C86.31,39.517,70.382,34.455,58.061,34.455
		c-12.231,0-28,8.063-30.125,23.125c-0.162-0.047,0.709-10.5-3.541-11.625l18.833-18l32.917-0.833L93.228,46.538z"/>
</g>
<g>
	<g>
		<path fill="#593A1B" d="M27.701,60.02c0.192-2.691,0.451-5.323,1.188-7.612c4.525-14.08,18.542-20.506,29.061-20.506
			c13.97,0,33.188,5.964,34.313,27.451c0.313-3.789,1.063-9.555,1.416-11.796c-2.113-15.708-13.982-28.286-35.55-28.286
			c-21.625,0-33.928,17.887-34.959,28.325c0.844,0.5,1.406,1.501,1.969,2.313C27.412,53.188,27.571,59.982,27.701,60.02z"/>
		<linearGradient id="SVGID_5_" gradientUnits="userSpaceOnUse" x1="23.1694" y1="39.6455" x2="93.6787" y2="39.6455">
			<stop  offset="0.0033" style="stop-color:#676767"/>
			<stop  offset="0.3366" style="stop-color:#FDFDFD"/>
			<stop  offset="0.7063" style="stop-color:#FFFFFF"/>
			<stop  offset="0.9934" style="stop-color:#8A8A8A"/>
		</linearGradient>
		<path opacity="0.2" fill="url(#SVGID_5_)" d="M27.701,60.02c0.192-2.691,0.451-5.323,1.188-7.612
			c4.525-14.08,18.542-20.506,29.061-20.506c13.97,0,33.188,5.964,34.313,27.451c0.313-3.789,1.063-9.555,1.416-11.796
			c-2.113-15.708-13.982-28.286-35.55-28.286c-21.625,0-33.928,17.887-34.959,28.325c0.844,0.5,1.406,1.501,1.969,2.313
			C27.412,53.188,27.571,59.982,27.701,60.02z"/>
	</g>
	<g>
		<g>
			<g>
				<path fill="#2B1A0F" d="M92.536,44.959c-0.002-0.074-0.068-0.362-0.146-0.641c-0.08-0.278-0.189-0.481-0.244-0.451
					s-0.096,0.119-0.092,0.197c0.005,0.078,0.072,0.339,0.15,0.58s0.185,0.44,0.238,0.444
					C92.495,45.091,92.537,45.033,92.536,44.959z"/>
			</g>
			<g>
				<path fill="#2B1A0F" d="M25.988,42.519c-0.003-0.06-0.069-0.113-0.147-0.118c-0.078-0.006-0.241,0.265-0.363,0.603
					c-0.122,0.338-0.219,0.662-0.215,0.722s0.06,0.111,0.124,0.114c0.064,0.004,0.214-0.235,0.333-0.531s0.22-0.544,0.223-0.553
					c0.003-0.008,0.016-0.041,0.028-0.072C25.984,42.651,25.991,42.578,25.988,42.519z"/>
			</g>
			<g>
				<path fill="#2B1A0F" d="M27.956,38.284c-0.104-0.084-0.214-0.104-0.245-0.044c-0.032,0.06-0.162,0.312-0.29,0.561
					c-0.128,0.248-0.255,0.496-0.283,0.55c-0.028,0.054-0.046,0.141-0.039,0.192c0.007,0.052,0.086,0.155,0.177,0.229
					c0.091,0.074,0.19,0.091,0.22,0.038c0.03-0.053,0.167-0.294,0.305-0.535c0.137-0.241,0.276-0.485,0.309-0.544
					c0.033-0.058,0.055-0.147,0.048-0.199S28.059,38.368,27.956,38.284z"/>
			</g>
			<g>
				<path fill="#2B1A0F" d="M30.689,34.631c-0.103-0.147-0.228-0.213-0.28-0.146c-0.051,0.067-0.229,0.298-0.396,0.513
					s-0.342,0.444-0.391,0.508c-0.049,0.064-0.086,0.162-0.083,0.217c0.003,0.055,0.084,0.213,0.18,0.351
					c0.096,0.138,0.215,0.2,0.266,0.138s0.231-0.284,0.4-0.494c0.17-0.21,0.352-0.435,0.404-0.5c0.053-0.065,0.093-0.163,0.09-0.218
					S30.792,34.779,30.689,34.631z"/>
			</g>
			<g>
				<path fill="#2B1A0F" d="M38.3,27.377c-0.104-0.23-0.262-0.366-0.353-0.299c-0.091,0.066-0.366,0.264-0.611,0.44
					s-0.517,0.373-0.605,0.437c-0.088,0.063-0.144,0.153-0.123,0.198s0.02,0.095-0.003,0.11c-0.021,0.016,0.04,0.206,0.137,0.423
					c0.096,0.217,0.248,0.345,0.338,0.285s0.365-0.249,0.614-0.417c0.248-0.169,0.526-0.358,0.619-0.421s0.151-0.152,0.131-0.198
					c-0.021-0.046-0.02-0.096,0.003-0.111C38.468,27.809,38.402,27.607,38.3,27.377z"/>
			</g>
			<g>
				<path fill="#2B1A0F" d="M43.056,24.776c-0.085-0.28-0.246-0.465-0.358-0.41s-0.419,0.204-0.682,0.332
					c-0.263,0.128-0.568,0.276-0.68,0.331c-0.11,0.054-0.188,0.141-0.173,0.193s0.014,0.102-0.003,0.11s0.036,0.24,0.12,0.516
					c0.083,0.275,0.242,0.457,0.354,0.404s0.418-0.198,0.682-0.324c0.264-0.125,0.57-0.271,0.684-0.325s0.191-0.141,0.176-0.193
					s-0.016-0.102,0.003-0.11C43.196,25.292,43.14,25.056,43.056,24.776z"/>
			</g>
			<g>
				<path fill="#2B1A0F" d="M48.017,23.014c-0.057-0.307-0.203-0.527-0.326-0.489c-0.123,0.038-0.447,0.137-0.722,0.222
					s-0.599,0.184-0.72,0.222s-0.212,0.115-0.201,0.172c0.011,0.057,0.01,0.106-0.002,0.11c-0.013,0.004,0.023,0.253,0.08,0.555
					c0.057,0.301,0.201,0.518,0.323,0.482c0.121-0.036,0.445-0.132,0.72-0.214s0.6-0.178,0.723-0.214
					c0.123-0.036,0.215-0.113,0.204-0.17c-0.011-0.058-0.009-0.107,0.003-0.111S48.075,23.321,48.017,23.014z"/>
			</g>
			<g>
				<path fill="#2B1A0F" d="M52.416,22.195c-0.029-0.329-0.161-0.58-0.292-0.559c-0.132,0.021-0.467,0.075-0.745,0.119
					c-0.279,0.045-0.613,0.099-0.744,0.119c-0.129,0.021-0.231,0.087-0.227,0.146c0.006,0.06,0.005,0.11-0.002,0.111
					c-0.008,0.001,0.012,0.266,0.041,0.588c0.029,0.322,0.16,0.57,0.289,0.55c0.13-0.02,0.465-0.07,0.744-0.111
					c0.279-0.041,0.615-0.091,0.746-0.11c0.132-0.02,0.234-0.084,0.229-0.144s-0.004-0.109,0.003-0.11
					C52.464,22.793,52.446,22.524,52.416,22.195z"/>
			</g>
			<g>
				<path fill="#2B1A0F" d="M57.705,21.565c-0.016-0.345-0.143-0.619-0.281-0.609c-0.137,0.01-0.48,0.036-0.762,0.057
					c-0.281,0.021-0.623,0.046-0.759,0.056c-0.136,0.01-0.245,0.068-0.242,0.129s0.003,0.11,0.001,0.11
					c-0.002,0,0.01,0.278,0.027,0.617c0.017,0.339,0.143,0.61,0.278,0.601c0.136-0.009,0.478-0.03,0.759-0.048
					s0.625-0.04,0.764-0.048c0.137-0.008,0.248-0.065,0.244-0.126s-0.004-0.11-0.002-0.11C57.734,22.192,57.723,21.91,57.705,21.565
					z"/>
			</g>
			<g>
				<path fill="#2B1A0F" d="M63.14,21.135c-0.137-0.011-0.479-0.036-0.76-0.056c-0.283-0.021-0.625-0.045-0.764-0.056
					s-0.264,0.264-0.281,0.61c-0.016,0.346-0.027,0.628-0.025,0.629s0.002,0.05,0,0.11c-0.004,0.061,0.107,0.118,0.246,0.126
					c0.137,0.009,0.48,0.03,0.762,0.048c0.281,0.018,0.625,0.039,0.762,0.048c0.137,0.008,0.262-0.263,0.277-0.603
					s0.027-0.618,0.025-0.618c-0.002,0-0.002-0.05,0.002-0.11C63.386,21.203,63.276,21.146,63.14,21.135z"/>
			</g>
			<g>
				<path fill="#2B1A0F" d="M68.263,22.147c-0.129-0.028-0.461-0.101-0.738-0.162s-0.609-0.134-0.74-0.163
					c-0.129-0.029-0.275,0.215-0.322,0.542c-0.049,0.327-0.082,0.595-0.074,0.597s0.006,0.051-0.002,0.11
					c-0.01,0.06,0.09,0.13,0.221,0.157c0.129,0.027,0.463,0.097,0.74,0.155c0.279,0.058,0.611,0.127,0.74,0.154
					c0.129,0.026,0.273-0.214,0.32-0.535s0.078-0.584,0.072-0.586c-0.008-0.001-0.006-0.051,0.002-0.111
					C68.489,22.247,68.392,22.176,68.263,22.147z"/>
			</g>
			<g>
				<path fill="#2B1A0F" d="M73.263,23.75c-0.121-0.045-0.438-0.166-0.707-0.269s-0.588-0.224-0.707-0.27
					c-0.121-0.046-0.281,0.165-0.355,0.467c-0.076,0.303-0.127,0.555-0.115,0.559c0.012,0.005,0.012,0.055-0.002,0.111
					c-0.016,0.056,0.072,0.138,0.193,0.183c0.121,0.044,0.439,0.162,0.711,0.261c0.27,0.1,0.588,0.217,0.707,0.261
					c0.119,0.043,0.277-0.164,0.352-0.461s0.125-0.544,0.113-0.549c-0.014-0.005-0.012-0.055,0.002-0.11S73.382,23.795,73.263,23.75
					z"/>
			</g>
			<g>
				<path fill="#2B1A0F" d="M78.048,26.156c-0.107-0.062-0.404-0.234-0.66-0.381c-0.254-0.147-0.551-0.319-0.66-0.381
					s-0.281,0.11-0.385,0.384c-0.102,0.273-0.172,0.506-0.154,0.516s0.018,0.06-0.002,0.111s0.055,0.143,0.164,0.205
					c0.107,0.062,0.406,0.23,0.662,0.375c0.256,0.145,0.555,0.313,0.662,0.374s0.279-0.109,0.379-0.378
					c0.102-0.269,0.17-0.497,0.152-0.507s-0.016-0.06,0.002-0.11C78.228,26.311,78.155,26.218,78.048,26.156z"/>
			</g>
			<g>
				<path fill="#2B1A0F" d="M82.452,29.441c-0.084-0.071-0.342-0.29-0.574-0.485c-0.232-0.196-0.494-0.417-0.58-0.49
					c-0.088-0.073-0.256,0.049-0.373,0.272c-0.119,0.222-0.199,0.418-0.178,0.436c0.021,0.018,0.021,0.067-0.002,0.11
					s0.029,0.137,0.119,0.207c0.088,0.071,0.354,0.283,0.59,0.472c0.236,0.189,0.5,0.399,0.586,0.467
					c0.084,0.068,0.246-0.048,0.357-0.258c0.111-0.209,0.186-0.396,0.164-0.413c-0.021-0.018-0.021-0.068,0.002-0.11
					S82.536,29.512,82.452,29.441z"/>
			</g>
			<g>
				<path fill="#2B1A0F" d="M88.544,35.578c-0.04-0.059-0.183-0.27-0.317-0.468s-0.278-0.411-0.319-0.472
					c-0.041-0.062-0.16-0.02-0.265,0.094s-0.177,0.224-0.161,0.245c0.016,0.022,0.011,0.06-0.012,0.083
					c-0.021,0.024-0.004,0.092,0.039,0.152s0.191,0.268,0.329,0.461s0.285,0.399,0.326,0.457s0.154,0.018,0.252-0.087
					s0.183-0.229,0.188-0.275C88.61,35.722,88.583,35.636,88.544,35.578z"/>
			</g>
			<g>
				<path fill="#2B1A0F" d="M90.978,40.26c-0.022-0.049-0.123-0.274-0.225-0.499c-0.101-0.225-0.203-0.454-0.227-0.508
					c-0.025-0.055-0.118-0.04-0.209,0.032c-0.09,0.073-0.146,0.212-0.127,0.312c0.02,0.099,0.125,0.358,0.234,0.577
					s0.217,0.437,0.24,0.485c0.023,0.048,0.107,0.036,0.188-0.027c0.078-0.063,0.148-0.152,0.154-0.198S90.999,40.309,90.978,40.26z
					"/>
			</g>
		</g>
	</g>
	<g>
		<g>
			<g>
				<path fill="#2B1A0F" d="M29.059,45.692c-0.081-0.006-0.25,0.207-0.377,0.473c-0.126,0.266-0.199,0.557-0.161,0.646
					s0.119,0.119,0.179,0.065s0.222-0.307,0.358-0.562c0.136-0.255,0.226-0.497,0.198-0.538S29.14,45.699,29.059,45.692z"/>
			</g>
			<g>
				<path fill="#2B1A0F" d="M31.669,41.895c-0.101-0.096-0.349,0.068-0.552,0.363s-0.396,0.617-0.431,0.715s0.01,0.245,0.099,0.327
					c0.089,0.083,0.192,0.109,0.229,0.059s0.209-0.275,0.381-0.501s0.345-0.496,0.385-0.6C31.82,42.154,31.771,41.991,31.669,41.895
					z"/>
			</g>
			<g>
				<path fill="#2B1A0F" d="M34.981,38.435c-0.11-0.143-0.25-0.209-0.311-0.146c-0.061,0.063-0.271,0.28-0.466,0.482
					s-0.403,0.417-0.461,0.478c-0.058,0.06-0.104,0.161-0.102,0.224s0.088,0.223,0.191,0.354c0.103,0.132,0.236,0.192,0.295,0.135
					s0.271-0.263,0.472-0.456s0.415-0.401,0.477-0.461c0.062-0.06,0.11-0.163,0.108-0.229
					C35.183,38.749,35.091,38.578,34.981,38.435z"/>
			</g>
			<g>
				<path fill="#2B1A0F" d="M40.035,34.167c-0.102-0.198-0.255-0.312-0.34-0.253c-0.084,0.059-0.339,0.237-0.565,0.395
					c-0.228,0.158-0.479,0.334-0.561,0.391c-0.081,0.057-0.124,0.151-0.095,0.209c0.03,0.058,0.03,0.122,0,0.142
					c-0.029,0.021,0.025,0.187,0.121,0.37c0.096,0.183,0.242,0.289,0.324,0.236s0.339-0.219,0.569-0.368
					c0.229-0.149,0.489-0.316,0.574-0.372c0.086-0.055,0.131-0.149,0.101-0.208c-0.031-0.059-0.031-0.124,0-0.145
					C40.194,34.543,40.136,34.364,40.035,34.167z"/>
			</g>
			<g>
				<path fill="#2B1A0F" d="M44.458,31.816c-0.086-0.241-0.242-0.398-0.346-0.349c-0.105,0.049-0.391,0.185-0.635,0.301
					c-0.245,0.116-0.529,0.251-0.634,0.301c-0.104,0.049-0.165,0.152-0.138,0.23c0.027,0.077,0.027,0.151,0,0.164
					s0.02,0.214,0.104,0.447s0.238,0.385,0.342,0.337s0.391-0.177,0.636-0.29c0.245-0.112,0.532-0.242,0.637-0.29
					c0.104-0.048,0.167-0.15,0.14-0.227s-0.027-0.15,0-0.163S44.544,32.057,44.458,31.816z"/>
			</g>
			<g>
				<path fill="#2B1A0F" d="M49.095,30.187c-0.061-0.265-0.203-0.453-0.318-0.417s-0.418,0.129-0.675,0.208
					c-0.256,0.079-0.56,0.171-0.673,0.207s-0.189,0.139-0.168,0.231c0.021,0.092,0.021,0.173,0,0.179s0.01,0.221,0.07,0.476
					c0.059,0.256,0.201,0.438,0.314,0.404c0.114-0.033,0.418-0.122,0.675-0.196c0.257-0.075,0.562-0.164,0.677-0.197
					c0.114-0.034,0.191-0.135,0.17-0.226c-0.021-0.091-0.021-0.17,0-0.176S49.156,30.452,49.095,30.187z"/>
			</g>
			<g>
				<path fill="#2B1A0F" d="M53.867,29.21c-0.035-0.284-0.165-0.499-0.288-0.478c-0.123,0.021-0.438,0.074-0.7,0.119
					c-0.262,0.044-0.576,0.098-0.697,0.118c-0.123,0.021-0.212,0.121-0.199,0.223c0.014,0.102,0.014,0.188,0,0.189
					c-0.013,0.002,0.006,0.228,0.041,0.502c0.034,0.274,0.163,0.483,0.285,0.463c0.121-0.02,0.436-0.069,0.698-0.11
					c0.263-0.041,0.577-0.09,0.701-0.109c0.123-0.02,0.214-0.116,0.201-0.215s-0.013-0.182,0-0.184
					C53.921,29.728,53.903,29.495,53.867,29.21z"/>
			</g>
			<g>
				<path fill="#2B1A0F" d="M58.328,28.591c-0.012-0.299-0.127-0.539-0.256-0.531c-0.131,0.007-0.453,0.024-0.719,0.039
					s-0.588,0.032-0.717,0.039s-0.23,0.1-0.227,0.207c0.004,0.107,0.004,0.194,0,0.195s0.002,0.237,0.012,0.527
					c0.012,0.29,0.127,0.521,0.254,0.516c0.129-0.005,0.453-0.02,0.717-0.031c0.266-0.012,0.59-0.026,0.721-0.031
					c0.129-0.006,0.232-0.095,0.229-0.197c-0.004-0.103-0.004-0.187,0-0.188C58.346,29.135,58.34,28.891,58.328,28.591z"/>
			</g>
			<g>
				<path fill="#2B1A0F" d="M62.538,28.244c-0.131-0.008-0.453-0.027-0.719-0.042s-0.588-0.035-0.719-0.042
					c-0.131-0.008-0.248,0.231-0.26,0.531s-0.02,0.545-0.014,0.546c0.004,0,0.004,0.084,0,0.187
					c-0.006,0.102,0.098,0.191,0.229,0.198s0.453,0.022,0.719,0.035s0.59,0.028,0.719,0.035c0.129,0.006,0.244-0.227,0.256-0.516
					c0.014-0.29,0.02-0.527,0.016-0.527c-0.006,0-0.006-0.088,0-0.195C62.769,28.345,62.667,28.251,62.538,28.244z"/>
			</g>
			<g>
				<path fill="#2B1A0F" d="M68.157,29.023c-0.121-0.022-0.436-0.079-0.699-0.126c-0.262-0.047-0.578-0.104-0.701-0.126
					c-0.123-0.022-0.254,0.192-0.293,0.476c-0.037,0.284-0.057,0.519-0.045,0.521c0.014,0.002,0.014,0.085,0,0.184
					c-0.012,0.099,0.078,0.196,0.201,0.217c0.123,0.021,0.439,0.074,0.703,0.117c0.262,0.044,0.578,0.097,0.699,0.117
					c0.121,0.02,0.252-0.188,0.289-0.462s0.057-0.501,0.045-0.503c-0.014-0.002-0.014-0.087,0-0.189
					C68.368,29.146,68.28,29.044,68.157,29.023z"/>
			</g>
			<g>
				<path fill="#2B1A0F" d="M72.905,30.308c-0.113-0.037-0.416-0.135-0.672-0.218s-0.559-0.182-0.672-0.219
					c-0.115-0.038-0.262,0.148-0.326,0.412s-0.098,0.486-0.076,0.493s0.021,0.086,0,0.175c-0.021,0.09,0.053,0.192,0.168,0.228
					s0.418,0.129,0.676,0.209c0.256,0.08,0.559,0.173,0.672,0.208s0.258-0.145,0.322-0.4c0.063-0.255,0.096-0.47,0.074-0.477
					c-0.023-0.007-0.023-0.088,0-0.179C73.093,30.449,73.019,30.344,72.905,30.308z"/>
			</g>
			<g>
				<path fill="#2B1A0F" d="M77.468,32.295c-0.102-0.052-0.385-0.194-0.629-0.316c-0.242-0.123-0.527-0.265-0.631-0.317
					s-0.264,0.101-0.354,0.341c-0.092,0.239-0.143,0.447-0.113,0.461c0.029,0.014,0.029,0.086,0,0.161
					c-0.029,0.075,0.033,0.178,0.139,0.228c0.104,0.05,0.389,0.188,0.633,0.306s0.529,0.255,0.633,0.305
					c0.102,0.05,0.26-0.098,0.348-0.33c0.09-0.231,0.139-0.432,0.111-0.446c-0.029-0.014-0.029-0.087,0-0.162
					C77.632,32.451,77.571,32.347,77.468,32.295z"/>
			</g>
			<g>
				<path fill="#2B1A0F" d="M81.694,35.051c-0.082-0.059-0.33-0.243-0.553-0.409c-0.225-0.166-0.475-0.351-0.559-0.413
					c-0.082-0.062-0.238,0.048-0.346,0.243c-0.105,0.195-0.168,0.373-0.137,0.395c0.031,0.022,0.031,0.086,0,0.143
					s0.012,0.15,0.098,0.208c0.084,0.058,0.338,0.233,0.566,0.39c0.227,0.156,0.479,0.33,0.561,0.386s0.232-0.046,0.332-0.227
					c0.102-0.181,0.158-0.347,0.129-0.369c-0.031-0.021-0.031-0.084,0-0.14C81.815,35.205,81.774,35.111,81.694,35.051z"/>
			</g>
			<g>
				<path fill="#2B1A0F" d="M85.489,38.521c-0.059-0.061-0.269-0.277-0.467-0.48c-0.197-0.204-0.409-0.422-0.471-0.485
					c-0.061-0.063-0.201,0.003-0.311,0.147c-0.109,0.143-0.176,0.284-0.146,0.312c0.027,0.027,0.027,0.08,0,0.116
					c-0.029,0.037-0.001,0.116,0.062,0.176s0.279,0.269,0.481,0.463c0.202,0.195,0.445,0.42,0.539,0.5s0.254,0.039,0.357-0.093
					c0.102-0.132,0.158-0.309,0.123-0.393C85.624,38.699,85.548,38.581,85.489,38.521z"/>
			</g>
			<g>
				<path fill="#2B1A0F" d="M88.731,42.71c-0.036-0.095-0.201-0.369-0.365-0.608c-0.166-0.24-0.333-0.483-0.373-0.541
					c-0.039-0.058-0.154-0.027-0.256,0.069c-0.102,0.096-0.149,0.257-0.107,0.359c0.042,0.102,0.219,0.371,0.393,0.599
					c0.173,0.228,0.346,0.454,0.385,0.504c0.037,0.05,0.141,0.023,0.229-0.059C88.726,42.951,88.768,42.805,88.731,42.71z"/>
			</g>
			<g>
				<path fill="#2B1A0F" d="M91.261,47.61c-0.009-0.054-0.107-0.358-0.219-0.676c-0.111-0.318-0.258-0.549-0.326-0.514
					c-0.068,0.035-0.115,0.115-0.104,0.179s0.111,0.336,0.221,0.606s0.254,0.494,0.321,0.497S91.27,47.665,91.261,47.61z"/>
			</g>
		</g>
	</g>
	<g>
		<g>
			<g>
				<g>
					<g>
						<path fill-rule="evenodd" clip-rule="evenodd" fill="#1E1107" d="M63.896,29.603c-0.136,5.948,4.64,10.894,10.584,11.947
							c5.948,1.007,12.174-2.022,14.054-7.666c1.882-5.617-2.679-12.187-10.38-13.518C70.451,19.027,64.021,23.681,63.896,29.603z"
							/>
					</g>
					<g>
						<path fill-rule="evenodd" clip-rule="evenodd" fill="#463014" d="M64.032,26.605c-0.136,5.949,4.809,10.899,10.96,11.988
							c6.154,1.042,12.543-1.933,14.423-7.577c1.883-5.617-2.842-12.24-10.749-13.606C70.757,16.036,64.158,20.685,64.032,26.605z"
							/>
					</g>
				</g>
				<g>
					<path fill-rule="evenodd" clip-rule="evenodd" fill="#FFFFFF" d="M76.14,35.299c-4.537-0.826-8.027-4.507-7.726-8.693
						c0.298-4.172,4.997-7.241,10.412-6.265c5.417,0.969,8.792,5.492,7.616,9.506C85.268,33.876,80.681,36.103,76.14,35.299z"/>
					<path fill="#301E0D" d="M78.605,21.571c4.493,0.804,7.335,4.52,6.409,7.896c-0.925,3.386-4.775,5.291-8.654,4.601
						c-3.876-0.703-6.798-3.826-6.486-7.322C70.184,23.259,74.113,20.762,78.605,21.571 M79.047,19.11
						c-6.368-1.147-11.83,2.514-12.094,7.377c-0.27,4.881,3.783,9.096,8.966,10.042c5.187,0.916,10.498-1.613,11.946-6.281
						C89.314,25.599,85.417,20.25,79.047,19.11L79.047,19.11z"/>
				</g>
				<path fill-rule="evenodd" clip-rule="evenodd" fill="#CADBDD" d="M77.707,31.226c-3.47-0.052-6.646-1.927-7.839-4.647
					c-0.078,0.491-0.104,1.07-0.043,1.587c0.481,3.5,4.036,6.007,7.974,6.074c3.935,0.051,7.354-2.466,7.462-6.003
					c0.009-0.521-0.065-1.034-0.206-1.532C84.168,29.438,81.172,31.266,77.707,31.226z"/>
			</g>
			<g>
				<g>
					<g>
						<path fill-rule="evenodd" clip-rule="evenodd" fill="#1E1107" d="M30.199,33.884c1.88,5.645,8.104,8.673,14.054,7.666
							c5.944-1.054,10.72-5.999,10.585-11.948c-0.126-5.921-6.558-10.574-14.259-9.236C32.876,21.697,28.317,28.267,30.199,33.884z"
							/>
					</g>
					<g>
						<path fill-rule="evenodd" clip-rule="evenodd" fill="#463014" d="M29.317,31.017c1.88,5.645,8.267,8.62,14.423,7.577
							c6.15-1.089,11.097-6.04,10.961-11.988c-0.125-5.921-6.727-10.57-14.635-9.195C32.158,18.776,27.435,25.4,29.317,31.017z"/>
					</g>
				</g>
				<g>
					<path fill-rule="evenodd" clip-rule="evenodd" fill="#FFFFFF" d="M42.878,35.078c-4.551,0.791-9.137-1.451-10.298-5.483
						c-1.162-4.019,2.235-8.532,7.662-9.484c5.426-0.959,10.121,2.125,10.405,6.298C50.935,30.597,47.426,34.267,42.878,35.078z"/>
					<path fill="#301E0D" d="M40.459,21.342c4.501-0.795,8.428,1.715,8.726,5.203c0.3,3.498-2.638,6.611-6.523,7.302
						c-3.887,0.677-7.737-1.238-8.651-4.628C33.097,25.84,35.957,22.132,40.459,21.342 M40.025,18.88
						C33.643,20,29.72,25.337,31.153,29.992c1.433,4.673,6.743,7.217,11.942,6.318c5.194-0.93,9.269-5.132,9.016-10.014
						C51.864,21.432,46.407,17.753,40.025,18.88L40.025,18.88z"/>
				</g>
				<path fill-rule="evenodd" clip-rule="evenodd" fill="#CADBDD" d="M41.942,30.968c-3.457,0.411-6.792-1.104-8.109-3.68
					c-0.062,0.503-0.058,1.013,0.032,1.523c0.655,3.451,4.479,5.607,8.392,5.142c3.915-0.481,7.03-3.432,6.994-6.946
					c-0.013-0.518-0.107-1.015-0.261-1.491C48.208,28.338,45.398,30.546,41.942,30.968z"/>
			</g>
		</g>
	</g>
</g>
<g id="pupille">
	<circle fill="#350909" cx="75.297" cy="70.467" r="2.28"/>
	<path fill="#BE1029" d="M75.297,68.687c0.982,0,1.78,0.796,1.78,1.779c0,0.984-0.798,1.781-1.78,1.781
		c-0.983,0-1.781-0.797-1.781-1.781C73.516,69.482,74.313,68.687,75.297,68.687 M75.297,67.687c-1.533,0-2.781,1.247-2.781,2.779
		c0,1.533,1.248,2.781,2.781,2.781s2.78-1.248,2.78-2.781C78.077,68.934,76.83,67.687,75.297,67.687L75.297,67.687z"/>
</g>
<path fill="#301E0D" d="M66.251,74.538c0,0,0.552-1.734,1.943-3.581c1.555-2.061,4.139-4.269,7.781-4.518
	c0.955-0.064,2.434,0.088,3.594,0.296c0.891,0.159,2.809,0.685,3.533,0.912c0.508,0.159,0.992,0.281,1.295,0.266
	c0.103-0.006,0.352,0.06,0.221,0.244c-0.27,0.378-0.864,1.033-1.133,1.324c-0.086,0.092-0.342,0.146-0.443,0.139
	c-1.525-0.109-3.066-1.115-7.912-0.836c-2.65,0.151-4.688,1.564-6.125,2.969C67.64,73.086,66.823,74.415,66.251,74.538z"/>
<path fill-rule="evenodd" clip-rule="evenodd" fill="#C69471" d="M50.849,100.479c2.088-0.791,3.946-1.492,5.803-2.203
	c1.602-0.607,2.938,0.201,4.257,1.207c1.895-1.794,3.848-1.475,5.896-0.557c1.307,0.585,2.678,0.939,4.043,1.407
	c-0.74,0.331-3.865,6.153-10,6.153C54.714,106.487,51.824,100.665,50.849,100.479z"/>
<path fill-rule="evenodd" clip-rule="evenodd" fill="#B28566" d="M60.909,99.502c-1.319-1.005-2.655-1.833-4.257-1.226
	c-1.857,0.711-3.715,1.412-5.803,2.203c0,0,7.102,1.488,10,0.469c3.232,1.349,9.045,0.049,10-0.614
	c-1.365-0.468-2.736-0.822-4.043-1.407C64.757,98.009,62.804,97.708,60.909,99.502z"/>
</svg>
