<?xml version="1.0" encoding="UTF-8" standalone="no"?>
<!DOCTYPE svg PUBLIC "-//W3C//DTD SVG 1.0//EN" "http://www.w3.org/TR/2001/PR-SVG-20010719/DTD/svg10.dtd">
<svg width="62cm" height="25cm" viewBox="-391 31 1231 486" xmlns="http://www.w3.org/2000/svg" xmlns:xlink="http://www.w3.org/1999/xlink">
  <g>
    <rect style="fill: #ffffff" x="55" y="33" width="168" height="38"/>
    <rect style="fill: none; fill-opacity:0; stroke-width: 2; stroke: #000000" x="55" y="33" width="168" height="38"/>
    <text font-size="12.7998" style="fill: #000000;text-anchor:middle;font-family:sans-serif;font-style:normal;font-weight:normal" x="139" y="55.9">
      <tspan x="139" y="55.9">Component 3</tspan>
    </text>
  </g>
  <g>
    <rect style="fill: #ffffff" x="381.1" y="32.8" width="168" height="38"/>
    <rect style="fill: none; fill-opacity:0; stroke-width: 2; stroke: #000000" x="381.1" y="32.8" width="168" height="38"/>
    <text font-size="12.7998" style="fill: #000000;text-anchor:middle;font-family:sans-serif;font-style:normal;font-weight:normal" x="465.1" y="55.7">
      <tspan x="465.1" y="55.7">Event Core</tspan>
    </text>
  </g>
  <g>
    <rect style="fill: #ffffff" x="670.3" y="36.4" width="168" height="38"/>
    <rect style="fill: none; fill-opacity:0; stroke-width: 2; stroke: #000000" x="670.3" y="36.4" width="168" height="38"/>
    <text font-size="12.7998" style="fill: #000000;text-anchor:middle;font-family:sans-serif;font-style:normal;font-weight:normal" x="754.3" y="59.3">
      <tspan x="754.3" y="59.3">Client</tspan>
    </text>
  </g>
  <g>
    <line style="fill: none; fill-opacity:0; stroke-width: 2; stroke: #000000" x1="139" y1="71" x2="139" y2="288.264"/>
    <polygon style="fill: #000000" points="139,295.764 134,285.764 139,288.264 144,285.764 "/>
    <polygon style="fill: none; fill-opacity:0; stroke-width: 2; stroke: #000000" points="139,295.764 134,285.764 139,288.264 144,285.764 "/>
  </g>
  <g>
    <line style="fill: none; fill-opacity:0; stroke-width: 2; stroke: #000000" x1="465.1" y1="70.8" x2="464.384" y2="501.264"/>
    <polygon style="fill: #000000" points="464.371,508.764 459.388,498.756 464.384,501.264 469.388,498.772 "/>
    <polygon style="fill: none; fill-opacity:0; stroke-width: 2; stroke: #000000" points="464.371,508.764 459.388,498.756 464.384,501.264 469.388,498.772 "/>
  </g>
  <g>
    <line style="fill: none; fill-opacity:0; stroke-width: 2; stroke: #000000" x1="754.3" y1="74.4" x2="756.322" y2="505.264"/>
    <polygon style="fill: #000000" points="756.357,512.764 751.31,502.788 756.322,505.264 761.31,502.741 "/>
    <polygon style="fill: none; fill-opacity:0; stroke-width: 2; stroke: #000000" points="756.357,512.764 751.31,502.788 756.322,505.264 761.31,502.741 "/>
  </g>
  <g>
    <line style="fill: none; fill-opacity:0; stroke-width: 2; stroke: #000000" x1="139" y1="100" x2="454.264" y2="100.97"/>
    <polygon style="fill: #000000" points="461.764,100.993 451.749,105.962 454.264,100.97 451.779,95.9624 "/>
    <polygon style="fill: none; fill-opacity:0; stroke-width: 2; stroke: #000000" points="461.764,100.993 451.749,105.962 454.264,100.97 451.779,95.9624 "/>
  </g>
  <text font-size="12.7998" style="fill: #000000;text-anchor:start;font-family:sans-serif;font-style:normal;font-weight:normal" x="201" y="94">
    <tspan x="201" y="94">RegisterProcessor(foo,fooCallback)</tspan>
  </text>
  <g>
    <line style="fill: none; fill-opacity:0; stroke-width: 2; stroke: #000000" x1="757.302" y1="210" x2="473.038" y2="210.967"/>
    <polygon style="fill: #000000" points="465.538,210.992 475.521,205.958 473.038,210.967 475.555,215.958 "/>
    <polygon style="fill: none; fill-opacity:0; stroke-width: 2; stroke: #000000" points="465.538,210.992 475.521,205.958 473.038,210.967 475.555,215.958 "/>
  </g>
  <text font-size="12.7998" style="fill: #000000;text-anchor:start;font-family:sans-serif;font-style:normal;font-weight:normal" x="536" y="201">
    <tspan x="536" y="201">Publish(foo, event)</tspan>
  </text>
  <g>
    <path style="fill: none; fill-opacity:0; stroke-width: 2; stroke: #000000" d="M 464.302,241 A 27.0796,27.0796 0 1 0 457.816,294.463"/>
    <polygon style="fill: #000000" points="464.885,293.726 457.049,301.7 457.791,296.16 453.804,292.241 "/>
    <polygon style="fill: none; fill-opacity:0; stroke-width: 2; stroke: #000000" points="464.885,293.726 457.049,301.7 457.791,296.16 453.804,292.241 "/>
  </g>
  <text font-size="12.7998" style="fill: #000000;text-anchor:start;font-family:sans-serif;font-style:normal;font-weight:normal" x="400" y="253">
    <tspan x="400" y="253"></tspan>
  </text>
  <text font-size="12.7998" style="fill: #000000;text-anchor:start;font-family:sans-serif;font-style:normal;font-weight:normal" x="244" y="267">
    <tspan x="244" y="267">Execute fooCallback(event)</tspan>
    <tspan x="244" y="283">-&gt; enriches event with data</tspan>
  </text>
  <g>
    <line style="fill: none; fill-opacity:0; stroke-width: 2; stroke: #000000" x1="465.367" y1="404" x2="748.631" y2="404.967"/>
    <polygon style="fill: #000000" points="756.131,404.992 746.114,409.958 748.631,404.967 746.148,399.958 "/>
    <polygon style="fill: none; fill-opacity:0; stroke-width: 2; stroke: #000000" points="756.131,404.992 746.114,409.958 748.631,404.967 746.148,399.958 "/>
  </g>
  <text font-size="12.7998" style="fill: #000000;text-anchor:start;font-family:sans-serif;font-style:normal;font-weight:normal" x="540" y="398">
    <tspan x="540" y="398">Acknowledge(event)</tspan>
  </text>
  <g>
    <rect style="fill: #ffffff" x="-167.9" y="32.8" width="168" height="38"/>
    <rect style="fill: none; fill-opacity:0; stroke-width: 2; stroke: #000000" x="-167.9" y="32.8" width="168" height="38"/>
    <text font-size="12.7998" style="fill: #000000;text-anchor:middle;font-family:sans-serif;font-style:normal;font-weight:normal" x="-83.9" y="55.7">
      <tspan x="-83.9" y="55.7">Component 2</tspan>
    </text>
  </g>
  <g>
    <line style="fill: none; fill-opacity:0; stroke-width: 2; stroke: #000000" x1="-83.9" y1="70.8" x2="-83.674" y2="289.064"/>
    <polygon style="fill: #000000" points="-83.6662,296.564 -88.6766,286.569 -83.674,289.064 -78.6766,286.559 "/>
    <polygon style="fill: none; fill-opacity:0; stroke-width: 2; stroke: #000000" points="-83.6662,296.564 -88.6766,286.569 -83.674,289.064 -78.6766,286.559 "/>
  </g>
  <g>
    <line style="fill: none; fill-opacity:0; stroke-width: 2; stroke: #000000" x1="-84" y1="139" x2="455.264" y2="139"/>
    <polygon style="fill: #000000" points="462.764,139 452.764,144 455.264,139 452.764,134 "/>
    <polygon style="fill: none; fill-opacity:0; stroke-width: 2; stroke: #000000" points="462.764,139 452.764,144 455.264,139 452.764,134 "/>
  </g>
  <text font-size="12.7998" style="fill: #000000;text-anchor:start;font-family:sans-serif;font-style:normal;font-weight:normal" x="60.1" y="132.7">
    <tspan x="60.1" y="132.7">RegisterProcessor(foo,barCallback)</tspan>
  </text>
  <g>
    <path style="fill: none; fill-opacity:0; stroke-width: 2; stroke: #000000" d="M 464.115,323.554 A 26.713,26.713 0 1 0 457.978,376.225"/>
    <polygon style="fill: #000000" points="465.019,375.333 457.386,383.502 457.988,377.944 453.904,374.128 "/>
    <polygon style="fill: none; fill-opacity:0; stroke-width: 2; stroke: #000000" points="465.019,375.333 457.386,383.502 457.988,377.944 453.904,374.128 "/>
  </g>
  <text font-size="12.7998" style="fill: #000000;text-anchor:start;font-family:sans-serif;font-style:normal;font-weight:normal" x="246.1" y="350.7">
    <tspan x="246.1" y="350.7">Execute barCallback(event)</tspan>
    <tspan x="246.1" y="366.7">-&gt; enriches event with data</tspan>
  </text>
  <g>
    <rect style="fill: #ffffff" x="-389.9" y="33.8" width="168" height="38"/>
    <rect style="fill: none; fill-opacity:0; stroke-width: 2; stroke: #000000" x="-389.9" y="33.8" width="168" height="38"/>
    <text font-size="12.7998" style="fill: #000000;text-anchor:middle;font-family:sans-serif;font-style:normal;font-weight:normal" x="-305.9" y="56.7">
      <tspan x="-305.9" y="56.7">Component 1</tspan>
    </text>
  </g>
  <g>
    <line style="fill: none; fill-opacity:0; stroke-width: 2; stroke: #000000" x1="-305.9" y1="71.8" x2="-305.674" y2="290.064"/>
    <polygon style="fill: #000000" points="-305.666,297.564 -310.677,287.569 -305.674,290.064 -300.677,287.559 "/>
    <polygon style="fill: none; fill-opacity:0; stroke-width: 2; stroke: #000000" points="-305.666,297.564 -310.677,287.569 -305.674,290.064 -300.677,287.559 "/>
  </g>
  <g>
    <line style="fill: none; fill-opacity:0; stroke-width: 2; stroke: #000000" x1="-306.633" y1="174" x2="454.631" y2="174"/>
    <polygon style="fill: #000000" points="462.131,174 452.131,179 454.631,174 452.131,169 "/>
    <polygon style="fill: none; fill-opacity:0; stroke-width: 2; stroke: #000000" points="462.131,174 452.131,179 454.631,174 452.131,169 "/>
  </g>
  <text font-size="12.7998" style="fill: #000000;text-anchor:start;font-family:sans-serif;font-style:normal;font-weight:normal" x="-143.533" y="167.7">
    <tspan x="-143.533" y="167.7">RegisterConsumer(foo,bazCallback)</tspan>
  </text>
  <g>
    <path style="fill: none; fill-opacity:0; stroke-width: 2; stroke: #000000" d="M 462.482,417.554 A 26.713,26.713 0 1 0 456.345,470.225"/>
    <polygon style="fill: #000000" points="463.386,469.333 455.753,477.502 456.356,471.944 452.271,468.128 "/>
    <polygon style="fill: none; fill-opacity:0; stroke-width: 2; stroke: #000000" points="463.386,469.333 455.753,477.502 456.356,471.944 452.271,468.128 "/>
  </g>
  <text font-size="12.7998" style="fill: #000000;text-anchor:start;font-family:sans-serif;font-style:normal;font-weight:normal" x="246.467" y="442.7">
    <tspan x="246.467" y="442.7">Execute bazCallback(event)</tspan>
    <tspan x="246.467" y="458.7">-&gt; does not change event</tspan>
  </text>
</svg>
